<svg width="180" height="21" viewBox="0 0 180 21" fill="none" xmlns="http://www.w3.org/2000/svg">
<g clip-path="url(#clip0_6_3)">
<path d="M49.7141 14H47.9998H46.2855H44.5712H42.8569H41.1426H39.4284H37.7141H35.9998V12.25H37.7141V10.5V8.75H39.4284V7V5.25H41.1426V3.5V1.75V0H39.4284H37.7141V1.75V3.5H35.9998V5.25V7H34.2855V8.75V10.5H32.5712V12.25V14H30.8569V15.75V17.5H32.5712H34.2855H35.9998H37.7141H39.4284H41.1426H42.8569H44.5712H46.2855H47.9998H49.7141H51.4284V15.75H53.1426V14H51.4284H49.7141Z" fill="#A4A4A4"></path>
<path d="M65.1427 7V5.25H66.857V3.5V1.75V0H65.1427H63.4284V1.75V3.5H61.7141V5.25V7H59.9999V8.75V10.5H58.2856V12.25V14H56.5713V15.75V17.5H58.2856H59.9999V15.75H61.7141V14V12.25H63.4284V10.5V8.75H65.1427V7Z" fill="#A4A4A4"></path>
<path d="M120 5.25H121.714V3.5H123.428V1.75V0H121.714H120H118.286H116.571H114.857H113.143H111.428H109.714H108H106.286H104.571H102.857H101.143H99.4284V1.75V3.5H97.7141V5.25V7H95.9999V8.75V10.5H94.2856V12.25V14H92.5713V15.75V17.5H94.2856H95.9999V15.75H97.7141V14V12.25H99.4284V10.5H101.143H102.857H104.571H106.286H108H109.714H111.428H113.143H114.857H116.571V8.75H118.286V7H120V5.25ZM116.571 5.25H114.857V7H113.143H111.428H109.714H108H106.286H104.571H102.857H101.143V5.25H102.857V3.5H104.571H106.286H108H109.714H111.428H113.143H114.857H116.571V5.25Z" fill="#A4A4A4"></path>
<path d="M92.5716 5.25H94.2859V3.5H96.0002V1.75V0H94.2859H92.5716H90.8574H89.1431H87.4288H85.7145H84.0002H82.2859H80.5716H78.8574H77.1431H75.4288H73.7145H72.0002V1.75V3.5H70.2859V5.25V7H68.5716V8.75V10.5H66.8574V12.25V14H65.1431V15.75V17.5H66.8574H68.5716V15.75H70.2859V14V12.25H72.0002V10.5H73.7145H75.4288H77.1431H78.8574H80.5716H82.2859H84.0002H85.7145H87.4288H89.1431V8.75H90.8574V7H92.5716V5.25ZM89.1431 5.25H87.4288V7H85.7145H84.0002H82.2859H80.5716H78.8574H77.1431H75.4288H73.7145V5.25H75.4288V3.5H77.1431H78.8574H80.5716H82.2859H84.0002H85.7145H87.4288H89.1431V5.25Z" fill="#A4A4A4"></path>
<path d="M149.143 3.5V1.75H150.857V0H149.143H147.429H145.714H144H142.286H140.571H138.857H137.143H135.429H133.714H132H130.286H128.571H126.857V1.75V3.5H125.143V5.25V7H123.429V8.75V10.5H121.714V12.25V14H120V15.75V17.5H121.714H123.429H125.143H126.857H128.571H130.286H132H133.714H135.429H137.143H138.857H140.571H142.286V15.75H144V14H142.286H140.571H138.857H137.143H135.429H133.714H132H130.286H128.571H126.857H125.143V12.25H126.857V10.5H128.571H130.286H132H133.714H135.429H137.143H138.857H140.571H142.286V8.75H144V7H142.286H140.571H138.857H137.143H135.429H133.714H132H130.286H128.571V5.25H130.286V3.5H132H133.714H135.429H137.143H138.857H140.571H142.286H144H145.714H147.429H149.143Z" fill="#A4A4A4"></path>
<path d="M32.5714 1.75H34.2857V0H32.5714H30.8571H29.1429H27.4286H25.7143H24H22.2857H20.5714H18.8571H17.1429H15.4286H13.7143H12H10.2857H8.57143V1.75V3.5H6.85714V5.25V7H5.14286V8.75V10.5H3.42857V12.25V14H1.71429V15.75V17.5H0V19.25V21H1.71429H3.42857V19.25H5.14286V17.5V15.75H6.85714V14V12.25H8.57143V10.5H10.2857H12H13.7143H15.4286H17.1429H18.8571H20.5714H22.2857H24V8.75H25.7143V7H24H22.2857H20.5714H18.8571H17.1429H15.4286H13.7143H12H10.2857V5.25H12V3.5H13.7143H15.4286H17.1429H18.8571H20.5714H22.2857H24H25.7143H27.4286H29.1429H30.8571H32.5714V1.75Z" fill="#A4A4A4"></path>
<path d="M178.286 0H176.572H174.857H173.143H171.429H169.714H168H166.286H164.572H162.857H161.143H159.429H157.714H156H154.286V1.75V3.5H152.572V5.25V7H150.857V8.75V10.5H149.143V12.25V14H147.429V15.75V17.5H149.143H150.857V15.75H152.572V14V12.25H154.286V10.5H156H157.714H159.429H161.143H162.857H164.572H166.286V12.25H168V14H169.714V15.75H171.429V17.5H173.143V19.25H174.857V21H176.572H178.286V19.25V17.5H176.572V15.75H174.857V14H173.143V12.25H171.429V10.5V8.75H173.143V7H174.857V5.25H176.572V3.5H178.286V1.75H180V0H178.286ZM171.429 5.25H169.714V7H168H166.286H164.572H162.857H161.143H159.429H157.714H156V5.25H157.714V3.5H159.429H161.143H162.857H164.572H166.286H168H169.714H171.429V5.25Z" fill="#A4A4A4"></path>
</g>
<defs>
<clipPath id="clip0_6_3">
<rect width="180" height="21" fill="white"></rect>
</clipPath>
</defs>
</svg>
