<svg width="186" height="136" viewBox="0 0 186 136" fill="none" xmlns="http://www.w3.org/2000/svg">
<path d="M49 135H2L185.5 1.5V35.5L49 135Z" fill="#FFCE3C" stroke="black"/>
<path d="M40.8849 117.196L42.6542 115.906L46.8061 121.598C47.2895 122.261 47.5546 122.923 47.6014 123.584C47.6522 124.242 47.5125 124.866 47.1823 125.458C46.8561 126.046 46.3714 126.575 45.7284 127.044C45.0854 127.513 44.4299 127.816 43.762 127.952C43.098 128.086 42.4586 128.03 41.8437 127.783C41.2327 127.534 40.6855 127.078 40.2021 126.415L36.0502 120.722L37.8255 119.427L41.9774 125.12C42.2594 125.507 42.5507 125.778 42.8514 125.933C43.1521 126.088 43.4585 126.14 43.7708 126.087C44.087 126.032 44.4029 125.889 44.7185 125.659C45.042 125.423 45.2744 125.166 45.4159 124.888C45.5612 124.606 45.6039 124.3 45.5439 123.969C45.4878 123.636 45.3187 123.275 45.0368 122.889L40.8849 117.196ZM51.1281 109.725L57.4121 118.341L55.6368 119.636L47.9627 116.385L52.175 122.161L50.3998 123.456L44.1158 114.84L45.8911 113.545L53.5754 116.797L49.3588 111.016L51.1281 109.725ZM61.6017 115.286L59.7258 116.654L58.7277 115.26L60.5917 113.901C61.0573 113.561 61.3735 113.17 61.5406 112.728C61.7048 112.282 61.7196 111.797 61.5849 111.273C61.4543 110.746 61.1789 110.194 60.7588 109.618L60.4524 109.198C60.1301 108.756 59.7994 108.402 59.4601 108.136C59.1248 107.867 58.783 107.684 58.4346 107.587C58.0863 107.491 57.7382 107.482 57.3905 107.56C57.0399 107.635 56.6929 107.797 56.3497 108.047L54.4206 109.454L53.4064 108.064L55.3355 106.657C55.9114 106.237 56.51 105.951 57.1312 105.8C57.7535 105.642 58.3726 105.617 58.9884 105.724C59.6042 105.831 60.1909 106.068 60.7486 106.434C61.3073 106.794 61.8111 107.282 62.2599 107.898L62.5577 108.306C63.0037 108.917 63.3142 109.546 63.4892 110.192C63.6681 110.835 63.7144 111.466 63.628 112.085C63.5427 112.697 63.3293 113.279 62.9879 113.83C62.6476 114.375 62.1855 114.86 61.6017 115.286ZM54.4478 107.304L60.7318 115.92L58.9565 117.215L52.6726 108.599L54.4478 107.304ZM71.6102 105.865L72.6201 107.249L68.034 110.594L67.0241 109.209L71.6102 105.865ZM62.33 101.555L68.6139 110.171L66.8387 111.466L60.5547 102.85L62.33 101.555ZM68.2978 102.578L69.2818 103.928L65.2934 106.836L64.3094 105.487L68.2978 102.578ZM66.3302 98.6377L67.3445 100.028L62.7643 103.369L61.7501 101.978L66.3302 98.6377ZM67.3717 97.8781L70.585 95.5346C71.2438 95.0541 71.8818 94.7398 72.4991 94.5918C73.1203 94.4409 73.7001 94.4652 74.2385 94.6648C74.7769 94.8644 75.2518 95.2463 75.6633 95.8104C75.9999 96.272 76.2102 96.726 76.2941 97.1725C76.379 97.6121 76.36 98.046 76.2371 98.4741C76.1153 98.8953 75.9125 99.3092 75.6287 99.7156L75.2823 100.421L72.4892 102.459L71.4675 101.082L73.5445 99.5676C73.8562 99.3403 74.0743 99.0966 74.1989 98.8365C74.3235 98.5764 74.3651 98.3104 74.3238 98.0383C74.2865 97.7634 74.1729 97.4957 73.983 97.2354C73.7815 96.9592 73.5562 96.7579 73.3069 96.6315C73.0576 96.5052 72.7895 96.465 72.5027 96.5109C72.216 96.5569 71.9148 96.695 71.5992 96.9252L70.1612 97.9739L75.4309 105.199L73.6557 106.494L67.3717 97.8781ZM78.4726 102.981L73.7069 100.573L75.5741 99.1933L80.3117 101.513L80.3721 101.595L78.4726 102.981ZM87.3472 92.1297L89.1166 90.8392C89.504 91.445 89.7197 92.0764 89.7637 92.7333C89.8116 93.3873 89.6752 94.0247 89.3544 94.6455C89.0375 95.2633 88.526 95.8298 87.8198 96.3448C87.2675 96.7477 86.7034 97.0141 86.1273 97.1441C85.5485 97.2702 84.9723 97.2674 84.3988 97.1357C83.8292 97.0011 83.278 96.7383 82.7451 96.3474C82.2122 95.9565 81.7156 95.4454 81.2552 94.8142L80.8193 94.2165C80.3589 93.5853 80.026 92.9548 79.8205 92.3251C79.6161 91.6885 79.5388 91.0771 79.5886 90.4908C79.6424 89.9016 79.8178 89.3506 80.1147 88.838C80.4116 88.3253 80.8303 87.8718 81.3707 87.4777C82.0887 86.954 82.7892 86.6425 83.4723 86.5432C84.1592 86.4411 84.8057 86.5195 85.4117 86.7786C86.0216 87.0348 86.5671 87.4347 87.0482 87.9783L85.2729 89.2731C85 88.9403 84.7166 88.6968 84.4227 88.5424C84.126 88.3842 83.8127 88.3316 83.4828 88.3849C83.1541 88.4312 82.7924 88.5983 82.3979 88.886C82.102 89.1018 81.8839 89.3455 81.7436 89.6171C81.6032 89.8887 81.5401 90.1916 81.5542 90.5258C81.5683 90.86 81.663 91.226 81.8384 91.6239C82.0148 92.015 82.2699 92.4393 82.6037 92.897L83.0482 93.5065C83.3733 93.9522 83.6932 94.3203 84.0077 94.6107C84.3193 94.8971 84.629 95.1063 84.9369 95.2384C85.2458 95.3636 85.5538 95.4048 85.8611 95.3621C86.1694 95.3125 86.4813 95.1726 86.7969 94.9424C87.1678 94.6719 87.4304 94.3898 87.5847 94.0959C87.739 93.802 87.7944 93.4927 87.7509 93.1679C87.7113 92.8402 87.5768 92.4941 87.3472 92.1297ZM96.1556 83.1762L96.4534 83.5845C96.931 84.2393 97.2709 84.8919 97.4732 85.5421C97.6755 86.1923 97.7487 86.8189 97.6928 87.4217C97.634 88.0206 97.4502 88.5807 97.1415 89.102C96.8367 89.6204 96.4121 90.0782 95.8677 90.4752C95.3272 90.8694 94.7616 91.1338 94.1709 91.2685C93.5841 91.4004 92.9946 91.4042 92.4025 91.2801C91.8075 91.152 91.2293 90.8938 90.6681 90.5054C90.1107 90.1141 89.5933 89.5911 89.1156 88.9362L88.8178 88.5279C88.3373 87.8691 87.9974 87.2165 87.798 86.5702C87.5957 85.92 87.5225 85.2935 87.5784 84.6907C87.6383 84.085 87.8206 83.5229 88.1254 83.0045C88.4342 82.4832 88.8588 82.0254 89.3992 81.6312C89.9436 81.2342 90.5092 80.9697 91.096 80.8379C91.6867 80.7032 92.2776 80.7013 92.8687 80.8323C93.4637 80.9603 94.0399 81.22 94.5972 81.6113C95.1556 81.9957 95.6751 82.5173 96.1556 83.1762ZM94.6604 84.8922L94.3539 84.472C94.0202 84.0144 93.6853 83.6422 93.3492 83.3555C93.0132 83.0688 92.678 82.866 92.3436 82.7473C92.0092 82.6286 91.6825 82.5949 91.3634 82.6463C91.0414 82.6938 90.7306 82.8268 90.4307 83.0455C90.1309 83.2642 89.9092 83.5195 89.7657 83.8116C89.6232 84.0968 89.5574 84.4168 89.5683 84.7715C89.5831 85.1232 89.6757 85.5029 89.846 85.9105C90.0164 86.3181 90.2684 86.7507 90.6022 87.2083L90.9086 87.6285C91.2395 88.0822 91.5744 88.4543 91.9134 88.745C92.2494 89.0318 92.586 89.2365 92.9233 89.3591C93.2577 89.4779 93.5859 89.5135 93.9078 89.466C94.2298 89.4186 94.5406 89.2855 94.8405 89.0668C95.1403 88.8482 95.362 88.5928 95.5055 88.3008C95.6491 88.0087 95.7135 87.6868 95.6986 87.335C95.6809 86.9792 95.5869 86.5976 95.4165 86.19C95.2433 85.7785 94.9912 85.3459 94.6604 84.8922ZM101.451 73.0228L107.735 81.6387L105.959 82.9335L98.2854 79.6828L102.498 85.4583L100.722 86.7531L94.4385 78.1372L96.2138 76.8424L103.898 80.0947L99.6815 74.3133L101.451 73.0228ZM112.12 74.9863C112.008 74.8324 111.884 74.7116 111.747 74.6238C111.612 74.5292 111.445 74.4753 111.248 74.4619C111.048 74.4446 110.801 74.4652 110.505 74.5237C110.209 74.5823 109.845 74.6844 109.414 74.83C108.931 74.9886 108.457 75.117 107.99 75.2153C107.528 75.3107 107.087 75.3517 106.666 75.3383C106.246 75.318 105.857 75.2239 105.499 75.0561C105.145 74.8853 104.833 74.6145 104.562 74.2437C104.3 73.8847 104.142 73.5017 104.087 73.0946C104.029 72.6837 104.066 72.2701 104.197 71.8538C104.326 71.4336 104.542 71.0253 104.845 70.629C105.152 70.2297 105.538 69.8603 106.004 69.5208C106.639 69.0576 107.277 68.7677 107.917 68.6513C108.557 68.5348 109.153 68.5808 109.704 68.7894C110.259 68.9951 110.723 69.3543 111.097 69.8672L109.334 71.1533C109.15 70.9008 108.935 70.7187 108.691 70.6071C108.447 70.4886 108.179 70.4518 107.885 70.4967C107.595 70.5387 107.291 70.6763 106.971 70.9093C106.663 71.1338 106.442 71.3681 106.306 71.6124C106.167 71.8528 106.103 72.0893 106.116 72.3219C106.125 72.5505 106.201 72.7615 106.342 72.9548C106.448 73.1008 106.58 73.2071 106.737 73.2736C106.899 73.3373 107.09 73.3672 107.311 73.3633C107.531 73.3594 107.781 73.3252 108.061 73.2605C108.34 73.1959 108.651 73.1048 108.994 72.9873C109.567 72.7869 110.096 72.646 110.581 72.5646C111.069 72.4803 111.514 72.4609 111.916 72.5063C112.318 72.5517 112.682 72.6698 113.009 72.8607C113.335 73.0516 113.628 73.3246 113.887 73.6797C114.16 74.0544 114.332 74.443 114.402 74.8453C114.472 75.2477 114.443 75.6521 114.317 76.0587C114.19 76.4652 113.974 76.8613 113.669 77.2469C113.364 77.6325 112.975 77.998 112.502 78.3432C112.076 78.654 111.615 78.9052 111.121 79.0968C110.623 79.2845 110.121 79.3877 109.615 79.4063C109.113 79.4221 108.631 79.3258 108.171 79.1175C107.711 78.9092 107.304 78.5624 106.95 78.0772L108.731 76.7781C108.927 77.0463 109.134 77.243 109.352 77.368C109.57 77.493 109.796 77.558 110.029 77.5631C110.266 77.5653 110.508 77.5157 110.755 77.4145C111.005 77.3105 111.257 77.1663 111.509 76.9822C111.817 76.7578 112.038 76.5302 112.172 76.2996C112.31 76.066 112.37 75.8378 112.352 75.6149C112.339 75.3891 112.261 75.1796 112.12 74.9863ZM114.316 63.6401L120.599 72.256L118.83 73.5464L112.546 64.9305L114.316 63.6401ZM116.967 61.7065L117.981 63.0972L110.951 68.2244L109.937 66.8338L116.967 61.7065ZM117.978 60.9685L121.192 58.625C121.851 58.1445 122.489 57.8302 123.106 57.6822C123.727 57.5313 124.307 57.5556 124.845 57.7552C125.384 57.9548 125.859 58.3367 126.27 58.9008C126.607 59.3624 126.817 59.8164 126.901 60.2629C126.986 60.7025 126.967 61.1364 126.844 61.5645C126.722 61.9857 126.519 62.3996 126.235 62.806L125.889 63.5119L123.096 65.549L122.074 64.1729L124.151 62.658C124.463 62.4307 124.681 62.187 124.806 61.9269C124.93 61.6669 124.972 61.4008 124.931 61.1287C124.893 60.8538 124.78 60.5861 124.59 60.3258C124.388 60.0496 124.163 59.8484 123.914 59.722C123.664 59.5956 123.396 59.5554 123.109 59.6014C122.823 59.6473 122.522 59.7854 122.206 60.0156L120.768 61.0644L126.038 68.2897L124.262 69.5844L117.978 60.9685ZM129.079 66.0713L124.314 63.6637L126.181 62.2837L130.918 64.603L130.979 64.6859L129.079 66.0713ZM130.5 51.8361L132.269 50.5456L136.421 56.2383C136.905 56.901 137.17 57.5628 137.217 58.2237C137.267 58.8817 137.128 59.5063 136.797 60.0977C136.471 60.6861 135.987 61.2149 135.344 61.6838C134.7 62.1528 134.045 62.4556 133.377 62.5922C132.713 62.726 132.074 62.6696 131.459 62.4231C130.848 62.1737 130.301 61.7176 129.817 61.0548L125.665 55.3622L127.441 54.0674L131.592 59.7601C131.874 60.1467 132.166 60.4177 132.466 60.5731C132.767 60.7285 133.074 60.7799 133.386 60.7274C133.702 60.6721 134.018 60.5293 134.334 60.2991C134.657 60.0632 134.89 59.806 135.031 59.5276C135.176 59.2463 135.219 58.9402 135.159 58.6093C135.103 58.2755 134.934 57.9153 134.652 57.5287L130.5 51.8361ZM142.925 51.5947L144.694 50.3043C145.081 50.9101 145.297 51.5414 145.341 52.1983C145.389 52.8524 145.253 53.4897 144.932 54.1105C144.615 54.7284 144.103 55.2949 143.397 55.8099C142.845 56.2127 142.281 56.4791 141.705 56.6092C141.126 56.7352 140.55 56.7324 139.976 56.6007C139.407 56.4662 138.855 56.2034 138.323 55.8125C137.79 55.4215 137.293 54.9104 136.833 54.2792L136.397 53.6816C135.936 53.0504 135.603 52.4199 135.398 51.7901C135.194 51.1536 135.116 50.5421 135.166 49.9558C135.22 49.3666 135.395 48.8157 135.692 48.303C135.989 47.7904 136.408 47.3369 136.948 46.9427C137.666 46.4191 138.367 46.1076 139.05 46.0083C139.737 45.9061 140.383 45.9846 140.989 46.2437C141.599 46.4999 142.145 46.8998 142.626 47.4434L140.85 48.7382C140.577 48.4054 140.294 48.1618 140 48.0075C139.703 47.8492 139.39 47.7967 139.06 47.8499C138.732 47.8963 138.37 48.0634 137.975 48.3511C137.68 48.5669 137.461 48.8106 137.321 49.0822C137.181 49.3538 137.118 49.6567 137.132 49.9909C137.146 50.3251 137.24 50.6911 137.416 51.089C137.592 51.4801 137.847 51.9044 138.181 52.362L138.626 52.9715C138.951 53.4173 139.271 53.7854 139.585 54.0757C139.897 54.3622 140.206 54.5714 140.514 54.7034C140.823 54.8287 141.131 54.8699 141.439 54.8271C141.747 54.7775 142.059 54.6376 142.374 54.4075C142.745 54.137 143.008 53.8548 143.162 53.561C143.316 53.2671 143.372 52.9578 143.328 52.6329C143.289 52.3052 143.154 51.9592 142.925 51.5947ZM145.335 41.0161L151.619 49.632L149.85 50.9225L143.566 42.3066L145.335 41.0161ZM147.986 39.0826L149.001 40.4732L141.97 45.6005L140.956 44.2099L147.986 39.0826ZM150.886 36.9678L157.17 45.5837L155.4 46.8742L149.117 38.2582L150.886 36.9678ZM162.621 34.7L162.919 35.1083C163.397 35.7632 163.737 36.4157 163.939 37.0659C164.141 37.7161 164.214 38.3427 164.158 38.9455C164.1 39.5444 163.916 40.1045 163.607 40.6258C163.302 41.1442 162.878 41.602 162.333 41.999C161.793 42.3932 161.227 42.6577 160.637 42.7924C160.05 42.9242 159.46 42.928 158.868 42.8039C158.273 42.6758 157.695 42.4176 157.134 42.0292C156.576 41.6379 156.059 41.1149 155.581 40.46L155.284 40.0517C154.803 39.3929 154.463 38.7403 154.264 38.0941C154.061 37.4438 153.988 36.8173 154.044 36.2145C154.104 35.6088 154.286 35.0467 154.591 34.5283C154.9 34.007 155.324 33.5492 155.865 33.155C156.409 32.758 156.975 32.4935 157.562 32.3617C158.152 32.227 158.743 32.2251 159.334 32.3561C159.929 32.4841 160.506 32.7438 161.063 33.1351C161.621 33.5195 162.141 34.0412 162.621 34.7ZM161.126 36.416L160.82 35.9959C160.486 35.5382 160.151 35.1661 159.815 34.8793C159.479 34.5926 159.144 34.3898 158.809 34.2711C158.475 34.1524 158.148 34.1187 157.829 34.1701C157.507 34.2176 157.196 34.3507 156.896 34.5693C156.597 34.788 156.375 35.0434 156.231 35.3354C156.089 35.6206 156.023 35.9406 156.034 36.2953C156.049 36.6471 156.141 37.0267 156.312 37.4343C156.482 37.8419 156.734 38.2745 157.068 38.7321L157.374 39.1523C157.705 39.606 158.04 39.9781 158.379 40.2688C158.715 40.5556 159.052 40.7603 159.389 40.883C159.723 41.0017 160.052 41.0373 160.374 40.9899C160.695 40.9424 161.006 40.8093 161.306 40.5907C161.606 40.372 161.828 40.1166 161.971 39.8246C162.115 39.5325 162.179 39.2106 162.164 38.8588C162.147 38.5031 162.053 38.1214 161.882 37.7138C161.709 37.3023 161.457 36.8697 161.126 36.416ZM167.917 24.5466L174.2 33.1626L172.425 34.4573L164.751 31.2066L168.963 36.9821L167.188 38.2769L160.904 29.661L162.68 28.3662L170.364 31.6185L166.147 25.8371L167.917 24.5466Z" fill="black"/>
<path d="M11 129V135H2.5L11 129Z" fill="black"/>
<path d="M26 118V124L19 129V123L26 118Z" fill="black"/>
<path d="M56 96V102L49 107V101L56 96Z" fill="black"/>
<path d="M70 114V120L63 125V119L70 114Z" fill="black"/>
<path d="M85 75V81L78 86V80L85 75Z" fill="black"/>
<path d="M99 93V99L92 104V98L99 93Z" fill="black"/>
<path d="M115 53V59L108 64V58L115 53Z" fill="black"/>
<path d="M129 71V77L122 82V76L129 71Z" fill="black"/>
<path d="M145 31V37L138 42V36L145 31Z" fill="black"/>
<path d="M159 49V55L152 60V54L159 49Z" fill="black"/>
<path d="M174 10V16L167 21V15L174 10Z" fill="black"/>
<path d="M41 107V113L34 118V112L41 107Z" fill="black"/>
<path d="M55 125V131L49 135L48 134.5V130L55 125Z" fill="black"/>
<path d="M71 85V91L64 96V90L71 85Z" fill="black"/>
<path d="M85 103V109L78 114V108L85 103Z" fill="black"/>
<path d="M130 42V48L123 53V47L130 42Z" fill="black"/>
<path d="M144 60V66L137 71V65L144 60Z" fill="black"/>
<path d="M100 64V70L93 75V69L100 64Z" fill="black"/>
<path d="M114 82V88L107 93V87L114 82Z" fill="black"/>
<path d="M160 20V26L153 31V25L160 20Z" fill="black"/>
<path d="M174 38V44L167 49V43L174 38Z" fill="black"/>
<path d="M185.5 1.5V7.5L182 10V4L185.5 1.5Z" fill="black"/>
<path d="M185.5 29V35L182 37.5V31.5L185.5 29Z" fill="black"/>
</svg>
