<?xml version="1.0" encoding="UTF-8"?>
<svg id="Layer_5" xmlns="http://www.w3.org/2000/svg" baseProfile="tiny" version="1.2" viewBox="0 0 352 264">
  <!-- Generator: Adobe Illustrator 29.7.1, SVG Export Plug-In . SVG Version: 2.1.1 Build 8)  -->
  <path d="M3.4,23.1s8.6,209.1,10.5,214.3,6.7,9.5,9,13.3,8.6,10.5,12.8,9.5,127.8-13.8,127.8-13.8c6.2,2.4,16.6,3.8,24.7-.5,3.8.5,126.9,13.8,126.9,13.8,7.6-1,12.8-1.4,12.4-8.6,3.8-1.4,10-6.7,10-15.2.5-4.3,10-212.4,10-212.4,0,0-77.9-47-170.6,5.7C103.2-22,3.4,23.1,3.4,23.1Z" fill="#fff"/>
  <path d="M160.5,242.2l2.9-.3c.8,0,1.6,0,2.3.4,0,0,2.6,1.3,6,2.2v-10.7c-11.1-4.9-37.9-14.2-77.5-11.6-30.8,2-65.9,8.9-76.4,11.1l.2,4.7c0,.2.1.6.3,1,9.4-2,45.1-9.1,76.3-11.2,26.2-1.7,46.6,2.1,59,5.6,6.8,1.9,12.1,3.9,15.6,5.5-21.6-4.8-51.5-5.2-88.9-1.1-27.5,3-50.3,7.6-55.4,8.6,0,0,.2,0,.2.1,1.6.6,2.7,2.1,2.8,3.8,0,.1,0,.2,0,.4,15.5-3.1,85.2-16,132.5-8.6Z" fill="#777"/>
  <path d="M25.9,80.6c14.1-4.4,37.5-9.7,69-9.7h.3c26-.2,49.5,7.7,64.6,14.3.4.2.8.2,1.1.2,1.1,0,2.1-.6,2.6-1.7.6-1.4,0-3.1-1.4-3.7-15.6-6.9-39.9-15.1-66.9-14.8,0,0-.2,0-.3,0-32.2,0-56.2,5.4-70.7,9.9-1.5.5-2.3,2.1-1.9,3.6.5,1.5,2.1,2.3,3.6,1.9Z" fill="#aaa"/>
  <path d="M26.4,95.1c14.3-4.3,37.8-9.4,68.7-9.6,26.4-.4,49.8,7.3,64.8,13.8.4.2.7.2,1.1.2,1.1,0,2.1-.6,2.6-1.7.6-1.4,0-3.1-1.5-3.7-15.5-6.7-39.7-14.6-67.1-14.2-31.6.1-55.6,5.4-70.3,9.8-1.5.5-2.3,2-1.9,3.5.5,1.5,2,2.3,3.5,1.9Z" fill="#aaa"/>
  <path d="M162.2,108.1c-6.9-2.9-14-5.4-21.2-7.4-1.5-.4-3.1.5-3.5,2-.4,1.5.5,3.1,2,3.5,7,2,13.9,4.4,20.5,7.2.4.2.7.2,1.1.2,1.1,0,2.2-.6,2.6-1.7.6-1.4,0-3.1-1.5-3.7Z" fill="#aaa"/>
  <path d="M162.3,122.1c-9.1-3.8-18.6-6.8-28.2-9-1.5-.3-3,.6-3.4,2.1-.3,1.5.6,3,2.1,3.4,9.3,2.1,18.5,5,27.3,8.7.4.1.7.2,1.1.2,1.1,0,2.2-.7,2.6-1.7.6-1.4,0-3.1-1.5-3.7Z" fill="#aaa"/>
  <path d="M162.3,136.2c-8.7-3.5-17.8-6.4-27.1-8.5-1.5-.3-3,.6-3.4,2.1-.3,1.5.6,3,2.1,3.4,9,2,17.8,4.8,26.2,8.2.4.1.7.2,1.1.2,1.1,0,2.2-.7,2.6-1.8.6-1.5-.1-3.1-1.6-3.7Z" fill="#aaa"/>
  <path d="M162.4,150.2c-9-3.6-18.4-6.4-28.1-8.4-1.5-.3-3,.7-3.4,2.2-.3,1.5.7,3,2.2,3.3,9.4,1.9,18.5,4.7,27.1,8.1.3.1.7.2,1,.2,1.1,0,2.2-.7,2.6-1.8.6-1.5-.1-3.1-1.6-3.7Z" fill="#aaa"/>
  <path d="M162.5,164.2c-8.6-3.4-17.8-6-27.2-7.9-1.5-.3-3,.7-3.3,2.2-.3,1.5.7,3,2.2,3.3,9.1,1.8,18,4.4,26.3,7.7.3.1.7.2,1,.2,1.1,0,2.2-.7,2.6-1.8.6-1.5-.2-3.1-1.6-3.7Z" fill="#aaa"/>
  <path d="M162.5,178.2c-8.5-3.2-17.5-5.8-26.8-7.6-1.5-.3-3,.7-3.3,2.2-.3,1.5.7,3,2.2,3.3,9,1.7,17.7,4.2,25.8,7.3.3.1.7.2,1,.2,1.1,0,2.2-.7,2.7-1.8.6-1.5-.2-3.1-1.6-3.7Z" fill="#aaa"/>
  <path d="M162.6,192.2c-8.4-3.1-17.3-5.6-26.6-7.3-1.5-.3-3,.7-3.3,2.3-.3,1.5.7,3,2.3,3.3,9,1.7,17.6,4,25.7,7,.3.1.7.2,1,.2,1.2,0,2.2-.7,2.7-1.8.5-1.5-.2-3.1-1.7-3.6Z" fill="#aaa"/>
  <path d="M160.7,211.6c.3.1.6.2,1,.2,1.2,0,2.2-.7,2.7-1.9.5-1.5-.2-3.1-1.7-3.6-14.4-5.2-37.9-11-68.3-9.3-25.8,1.3-51.7,6.1-64.9,8.9-1.5.3-2.5,1.8-2.2,3.4.3,1.5,1.8,2.5,3.4,2.2,13-2.7,38.6-7.5,64-8.8,29.4-1.7,52.2,4,66,9Z" fill="#aaa"/>
  <path d="M28.8,64c0-5.3-.2-8.3-.5-14,5.2-1.8,7.9-2.6,13.5-4,.2,5.7.4,8.5.4,14.3,2.2-.5,3.3-.8,5.5-1.3-.3-11.3-.7-22.5-.9-33.8-2.2.5-3.3.8-5.5,1.3,0,5.9.1,8.7.4,14.3-5.6,1.4-8.4,2.2-13.6,3.9-.3-5.8-.5-8.7-.5-14-2.1.8-3.1,1.2-5.2,2,.2,10.9,1.2,21.8,1.6,32.7,1.9-.6,2.8-.9,4.8-1.5Z"/>
  <path d="M57.8,56c1.7,1,3.6,1.4,5.9,1.2s4.1-.9,5.7-2.1c1.6-1.3,2.8-3.1,3.7-5.2.9-2.1,1.3-4.5,1.3-7,0-2.6-.5-4.7-1.4-6.6-.9-1.9-2.1-3.3-3.8-4.2-1.6-.9-3.7-1.3-6-1.1-2.3.3-4.3,1.1-6,2.4-1.7,1.3-2.9,3-3.8,5.1-.9,2-1.2,4.3-1.1,6.9,0,2.5.6,4.7,1.6,6.5,1,1.8,2.3,3.2,4,4.2ZM58.4,40.2c.4-1.3,1-2.3,1.8-3.1.8-.8,1.9-1.3,3.2-1.5,1.2-.1,2.3.1,3.1.8.8.6,1.5,1.5,1.9,2.7.4,1.2.6,2.5.6,4,0,1.5-.2,2.9-.6,4.2-.4,1.3-1,2.4-1.8,3.2-.8.8-1.8,1.3-3,1.4-1.2.1-2.3-.2-3.1-.8-.8-.7-1.5-1.6-1.9-2.8-.4-1.2-.7-2.5-.7-4,0-1.5.1-2.9.5-4.1Z"/>
  <path d="M88.9,56.5c1.7-8.6,2.5-11.6,4.2-18.2.1,0,.2,0,.3,0,1.7,6.7,2.5,9.7,4.1,18.2,2.2,0,3.3,0,5.5,0,2.6-12.5,3.9-15.5,6.5-25.5-2.2-.2-3.2-.3-5.4-.4-1.6,7.2-2.4,9.9-4,17.3,0,0-.1,0-.2,0-1.6-7.4-2.3-10.2-3.9-17.7-2.1,0-3.2-.1-5.3-.1-1.6,7.5-2.4,10.3-4,17.9h-.2c-1.6-7.6-2.4-10.4-4-17.9-2.2,0-3.2,0-5.4.2,2.6,10.4,3.8,13.6,6.4,26.3,2.2,0,3.3,0,5.5,0Z"/>
  <path d="M124.7,50.6c0,1.6.3,3,.9,4.3.6,1.3,1.4,2.3,2.5,3.1,1.1.8,2.3,1.3,3.6,1.6.7.2,1.4.3,1.9.3.5,0,.9,0,1.2,0-.3-2.1-.5-3.1-.8-5.1-.1,0-.4,0-.6,0-.3,0-.6,0-.9-.2-.4-.1-.8-.3-1.2-.6-.4-.3-.6-.6-.9-1.1s-.3-1.1-.3-1.9c0-5.3.1-8.8.1-12.7,1.3.3,2.7.6,4.4,1.1,0-1.8,0-2.7,0-4.6-1.7-.4-3.1-.7-4.4-1,0-1.8,0-3.8,0-6.2-2.1-.4-3.1-.7-5.3-1,0,2.4,0,4.4,0,6.2-1-.2-2-.3-3.2-.5,0,1.8,0,2.7,0,4.4,1.2.2,2.2.3,3.2.5,0,4.1-.1,7.7-.2,13.4Z"/>
  <path d="M142.8,61.3c1.6,1.6,3.5,2.7,5.6,3.4,2.2.6,4,.7,5.6,0,1.6-.6,2.7-1.7,3.6-3.4.8-1.7,1.3-3.8,1.3-6.5s-.4-5.2-1.3-7.5c-.8-2.3-2-4.2-3.6-5.9-1.5-1.6-3.4-2.8-5.5-3.4-2.1-.7-4-.7-5.6,0-1.6.6-2.8,1.8-3.7,3.6-.9,1.7-1.3,3.8-1.4,6.4,0,2.6.4,5,1.3,7.3s2.1,4.2,3.7,5.9ZM143.8,45.8c.4-1.2,1-2,1.8-2.5.8-.5,1.8-.6,3-.2,1.2.4,2.1,1.1,2.9,2.1.8,1,1.3,2.2,1.7,3.7.4,1.4.6,2.9.6,4.5,0,1.6-.2,2.9-.6,4.1-.4,1.1-1,2-1.7,2.4-.8.5-1.7.5-2.9.2-1.2-.4-2.2-1.1-3-2.1-.8-1-1.4-2.2-1.8-3.6-.4-1.4-.6-2.9-.6-4.4,0-1.6.2-2.9.6-4.1Z"/>
  <path d="M52.7,166.8c.5.4,1.1.6,1.8.6s.3,0,.5,0c11.2-1.9,21.7-3.1,31.1-3.5,4.3-.2,8.7-.2,12.9,0,.8,0,1.6-.3,2.2-.8.6-.6.9-1.4.8-2.2l-1.9-36.7c0-1.4-1.2-2.5-2.5-2.7h-1.1c-3.2-.4-6.7-.8-10.1-.8-12.1,0-23.9,1.2-34.9,3.5-1.4.3-2.3,1.6-2.3,3l2.6,37.5c0,.8.4,1.5,1.1,2ZM86.3,126.5c2.7,0,5.5.2,8.2.5l1.6,31.1c-3.4-.1-6.9,0-10.4.1-8.7.4-18.4,1.4-28.7,3.1l-2.2-31.9c9.9-1.9,20.5-2.9,31.4-2.9Z" fill="#aaa"/>
  <path d="M64.7,140.4c1.1-.2,2.3-.3,3.5-.4.1,0,.2,0,.3,0,1.2,0,2.1-1,2-2.2l-.2-3.8c0-1.1-1-2.1-2.1-2,0,0,0,0,0,0-1.7,0-3.2.2-4.5.4-1.1.2-1.9,1.1-1.8,2.2l.2,3.9c0,1.3,1.2,2.2,2.4,2Z" fill="#aaa"/>
  <path d="M133.2,101.5c.3-1.1-.4-2.3-1.5-2.6-.5-.1-4.9-1.3-6.6-1.5-.3,0-.6,0-.9.1-1.9.7-8.5,6-11.2,8.3-.9.7-1,2.1-.3,3,.4.5,1,.8,1.6.8s1-.2,1.4-.5c3.6-3,8.1-6.5,9.6-7.4,1.3.2,3.8.9,5.3,1.3,1.1.3,2.3-.4,2.6-1.5Z" fill="#d8d8d8"/>
  <path d="M180.3,233.8s0,0,0,0v10.6c3.4-.9,6.1-2.2,6.1-2.2.7-.4,1.5-.5,2.3-.4l2.9.3c47.3-7.5,117.1,5.5,132.5,8.6,0-.1,0-.2,0-.4,0-1.7,1.2-3.2,2.8-3.8,0,0,.2,0,.2-.1-5.1-1.1-27.9-5.6-55.4-8.6-37.5-4.1-67.3-3.7-88.9,1.1,3.6-1.5,8.8-3.6,15.6-5.5,12.5-3.5,32.8-7.3,59-5.6,31.2,2,66.9,9.2,76.3,11.2.1-.5.2-.8.3-1l.2-4.7c-10.5-2.2-45.6-9.1-76.4-11.1-39.6-2.6-66.4,6.7-77.5,11.6Z" fill="#777"/>
  <path d="M350.3,19.9c-1.1-.9-28.8-20.9-93.8-19.9-36.9.6-71.4,19.1-80.5,24.4C166.9,19.2,132.4.6,95.5,0,30.5-1,2.9,19.1,1.7,19.9.6,20.8,0,22.1,0,23.5l9.5,215.1c0,.1,0,.3,0,.4,0,.4,1.5,9.8,10.1,14.4,1.7,7.7,9.3,10.5,14.8,10.5s.3,0,.5,0c.1,0,.2,0,.3,0l127.8-13.5c1.8.8,5.5,2.2,9.8,2.9.5.2,1.1.4,1.8.4s.9,0,1.4,0c.5,0,.9,0,1.4,0s1.2-.1,1.8-.4c4.2-.7,8-2.1,9.8-2.9l127.8,13.5c.1,0,.2,0,.3,0,.2,0,.3,0,.5,0,5.5,0,13.1-2.8,14.8-10.5,8.6-4.6,10.1-13.9,10.1-14.4,0-.1,0-.3,0-.4l9.5-215.1c0-1.4-.6-2.8-1.7-3.6ZM34.6,255.5h0c-1.7,0-6.3-.4-6.7-4.7,0-.1,0-.2,0-.4,0-1.7-1.2-3.2-2.8-3.8,0,0-.2,0-.2-.1-4.3-1.7-6-5.5-6.6-7.4-.1-.5-.2-.8-.3-1l-.2-4.7L8.6,25.6c6.9-4.1,34-17.9,86.7-17,34.5.5,67.9,18.4,76.4,23.3v212.6c-3.4-.9-6-2.1-6-2.2-.7-.4-1.5-.5-2.3-.4l-2.9.3-125.8,13.3ZM334.1,233.3l-.2,4.7c0,.2-.1.6-.3,1-.6,2-2.3,5.7-6.6,7.4,0,0-.2,0-.2.1-1.6.6-2.7,2.1-2.8,3.8,0,.1,0,.2,0,.4-.4,4.3-5,4.7-6.6,4.7s0,0,0,0l-125.9-13.3-2.9-.3c-.8,0-1.6,0-2.3.4,0,0-2.7,1.3-6.1,2.2v-10.6s0,0,0,0V31.8c8.5-4.9,41.8-22.8,76.4-23.3,52.8-.8,79.8,12.9,86.7,17l-9.2,207.8Z"/>
  <path d="M256.6,21.4c-26,.3-50.5,9.2-66.5,16.7-1.4.7-2,2.3-1.4,3.8.5,1,1.5,1.6,2.6,1.6s.8,0,1.2-.3c15.5-7.2,39.2-15.9,64.1-16.1,33.9-.4,57.3,5.2,71,9.9,1.5.5,3.1-.3,3.6-1.7s-.3-3.1-1.7-3.6c-14.1-4.9-38.2-10.7-72.9-10.3Z" fill="#aaa"/>
  <path d="M328.9,46.1c-12.9-4.4-34.7-9.6-65.1-10.1h0c-1.5,0-2.8,1.2-2.8,2.8,0,1.6,1.2,2.9,2.8,2.9,29.7.5,50.8,5.6,63.4,9.8.3.1.6.1.9.1,1.2,0,2.3-.7,2.7-1.9.5-1.5-.3-3.1-1.8-3.6Z" fill="#aaa"/>
  <path d="M250.2,36.2c-24.1,1.3-46,9.4-60.2,15.9-1.4.7-2,2.3-1.4,3.8.5,1,1.5,1.7,2.6,1.7s.8,0,1.2-.3c13.7-6.3,35-14.1,58.2-15.4,1.6,0,2.8-1.4,2.7-3,0-1.6-1.4-2.8-3-2.7Z" fill="#aaa"/>
  <path d="M328.3,60.6c-13-4.2-34.7-9.4-64.4-10-1.6,0-2.9,1.2-2.9,2.8,0,1.6,1.2,2.9,2.8,2.9,29,.6,50.2,5.6,62.8,9.7.3,0,.6.1.9.1,1.2,0,2.3-.8,2.7-2,.5-1.5-.3-3.1-1.8-3.6Z" fill="#aaa"/>
  <path d="M327.8,75.2c-13.2-4.1-35.1-9.2-64.5-9.8-1.6,0-2.9,1.2-2.9,2.8,0,1.6,1.2,2.9,2.8,2.9,28.7.6,50,5.6,62.9,9.6.3,0,.6.1.8.1,1.2,0,2.3-.8,2.7-2,.5-1.5-.4-3.1-1.9-3.6Z" fill="#aaa"/>
  <path d="M327.2,89.7c-13.3-4-35.2-9-63.9-9.7,0,0,0,0,0,0-1.5,0-2.8,1.2-2.8,2.8,0,1.6,1.2,2.9,2.8,2.9,28,.7,49.4,5.5,62.4,9.5.3,0,.5.1.8.1,1.2,0,2.3-.8,2.7-2,.5-1.5-.4-3.1-1.9-3.5Z" fill="#aaa"/>
  <path d="M326.6,104.2c-13.5-3.9-35.5-8.7-63.6-9.6,0,0,0,0,0,0-1.5,0-2.8,1.2-2.8,2.8,0,1.6,1.2,2.9,2.7,2.9,27.5.8,49,5.5,62.2,9.3.3,0,.5.1.8.1,1.2,0,2.4-.8,2.7-2,.4-1.5-.4-3.1-1.9-3.5Z" fill="#aaa"/>
  <path d="M326,118.7c-13.6-3.8-35.6-8.5-63-9.4-1.6,0-2.9,1.2-2.9,2.7,0,1.6,1.2,2.9,2.7,2.9,26.9.9,48.4,5.5,61.7,9.2.3,0,.5.1.8.1,1.2,0,2.4-.8,2.7-2.1.4-1.5-.5-3.1-2-3.5Z" fill="#aaa"/>
  <path d="M249.9,50.8c-24.2,1.2-46,9-60,15.3-1,.5-1.7,1.5-1.7,2.6l-.3,56.1c0,1,.5,1.8,1.3,2.4.5.3,1,.5,1.6.5s.7,0,1.1-.2c12.8-5.3,33-11.8,56.9-12.5,1.5,0,2.7-1.3,2.7-2.8l1.3-58.4c0-.8-.3-1.5-.9-2.1-.6-.5-1.3-.8-2.1-.8ZM191.7,116c2.3-1,4.6-1.9,6.9-2.8.7-.3,1.5,0,1.8.8.3.7,0,1.5-.8,1.8-2.3.9-4.6,1.8-6.8,2.7-.2,0-.4.1-.6.1-.6,0-1.1-.3-1.3-.9-.3-.7,0-1.6.8-1.9ZM191.7,109.2c2.2-.9,4.4-1.8,6.7-2.7.7-.3,1.5,0,1.8.8.3.7,0,1.6-.8,1.8-2.2.8-4.4,1.7-6.6,2.7-.2,0-.4.1-.6.1-.5,0-1.1-.3-1.3-.9-.3-.7,0-1.6.7-1.9ZM191.8,102.3c2-.9,4-1.7,6-2.5.7-.3,1.6,0,1.8.8.3.7,0,1.6-.8,1.8-2,.8-4,1.6-5.9,2.4-.2,0-.4.1-.6.1-.5,0-1.1-.3-1.3-.9-.3-.7,0-1.6.7-1.9ZM191.8,95.5c1.9-.8,3.8-1.6,5.7-2.4.7-.3,1.6,0,1.8.8.3.7,0,1.6-.8,1.8-1.9.7-3.8,1.5-5.6,2.3-.2,0-.4.1-.6.1-.5,0-1.1-.3-1.3-.8-.3-.7,0-1.6.7-1.9ZM191.8,88.6c1.5-.7,3.4-1.5,5.4-2.3.7-.3,1.6,0,1.8.8.3.7,0,1.6-.8,1.8-1.9.8-3.8,1.6-5.3,2.2-.2,0-.4.1-.6.1-.5,0-1.1-.3-1.3-.8-.3-.7,0-1.6.7-1.9ZM191.9,81.8c1.7-.8,3.5-1.5,5.2-2.2.7-.3,1.6,0,1.8.8.3.7,0,1.6-.8,1.8-1.7.7-3.4,1.4-5.1,2.2-.2,0-.4.1-.6.1-.5,0-1.1-.3-1.3-.8-.3-.7,0-1.6.7-1.9ZM191.9,74.9c1.4-.6,3.6-1.6,5.2-2.2.7-.3,1.6,0,1.9.8.3.7,0,1.6-.8,1.9-1.5.6-3.7,1.6-5.1,2.2-.2,0-.4.1-.6.1-.5,0-1.1-.3-1.3-.8-.3-.7,0-1.6.7-1.9ZM201.2,78c8-3,16.1-5.4,24.1-7.2.8-.2,1.5.3,1.7,1.1s-.3,1.5-1.1,1.7c-7.9,1.7-15.9,4.1-23.7,7.1-.2,0-.3,0-.5,0-.6,0-1.1-.4-1.3-.9-.3-.7,0-1.5.8-1.8ZM201.1,71.1c9.8-3.8,19.6-6.6,29.3-8.4.8-.1,1.5.4,1.7,1.1.1.8-.4,1.5-1.1,1.7-9.5,1.8-19.2,4.6-28.8,8.3-.2,0-.3,0-.5,0-.6,0-1.1-.3-1.3-.9-.3-.7,0-1.6.8-1.8ZM201.3,84.8c13.4-5,26.9-8.2,40-9.6.8,0,1.5.5,1.6,1.3,0,.8-.5,1.5-1.3,1.6-12.9,1.3-26.1,4.5-39.3,9.4-.2,0-.3,0-.5,0-.6,0-1.1-.4-1.3-.9-.3-.7,0-1.5.8-1.8ZM203.3,107.7c-.2,0-.3,0-.5,0-.6,0-1.1-.4-1.3-.9-.3-.7.1-1.5.9-1.8,7.6-2.7,15.2-4.8,23.2-6.3.8-.2,1.5.4,1.7,1.1.2.8-.4,1.5-1.1,1.7-7.9,1.5-15.3,3.6-22.8,6.2ZM213.3,111.5c-3.2.9-6.2,1.8-9.8,3.1-.2,0-.3,0-.5,0-.6,0-1.1-.4-1.3-1-.3-.7.1-1.5.9-1.8,3.7-1.3,6.7-2.2,10-3.1.8-.2,1.5.2,1.7,1s-.2,1.5-1,1.7ZM202.7,101.1c-.2,0-.3,0-.5,0-.6,0-1.1-.4-1.3-.9-.3-.7.1-1.5.9-1.8,11-4,22.1-6.7,33.1-8.2.8-.1,1.5.4,1.6,1.2.1.8-.4,1.5-1.2,1.6-10.8,1.5-21.7,4.2-32.5,8.1ZM201.4,91.6c3.4-1.3,6.8-2.4,10.1-3.4.7-.2,1.5.2,1.8.9.2.7-.2,1.5-.9,1.8-3.3,1-6.6,2.1-9.9,3.4-.2,0-.3,0-.5,0-.6,0-1.1-.4-1.3-.9-.3-.7.1-1.5.8-1.8ZM199.1,64.5c.8,0,1.4.6,1.4,1.4s-.6,1.4-1.4,1.4-1.4-.6-1.4-1.4.6-1.4,1.4-1.4ZM195.3,66c.8,0,1.4.6,1.4,1.4s-.6,1.4-1.4,1.4-1.4-.6-1.4-1.4.6-1.4,1.4-1.4ZM190.3,68.8c0-.8.6-1.4,1.4-1.4s1.4.6,1.4,1.4-.6,1.4-1.4,1.4-1.4-.6-1.4-1.4Z" fill="#aaa"/>
  <path d="M248.6,123.7c-25,.6-45.9,7.1-59,12.4-1.5.6-2.1,2.2-1.6,3.7.4,1.1,1.5,1.8,2.6,1.8s.7,0,1.1-.2c12.7-5.2,32.8-11.4,56.9-12,1.6,0,2.8-1.3,2.8-2.9,0-1.6-1.3-2.8-2.9-2.8Z" fill="#aaa"/>
  <path d="M248.3,138.3c-25.1.5-45.8,6.7-58.7,11.9-1.5.6-2.2,2.2-1.6,3.7.4,1.1,1.5,1.8,2.6,1.8s.7,0,1-.2c12.5-5,32.4-11,56.7-11.5,1.6,0,2.8-1.3,2.8-2.9,0-1.6-1.3-2.8-2.9-2.8Z" fill="#aaa"/>
  <path d="M248.1,152.9s0,0,0,0c-25.3.3-45.8,6.3-58.6,11.3-1.5.6-2.2,2.2-1.6,3.7.4,1.1,1.5,1.8,2.6,1.8s.7,0,1-.2c12.3-4.8,32.1-10.6,56.6-10.9,1.6,0,2.8-1.3,2.8-2.9,0-1.6-1.3-2.8-2.8-2.8Z" fill="#aaa"/>
  <path d="M262.6,127.1l-.8,42.8c25.5,1.4,48.6,5.9,61.1,8.8l1.6-42.4c-11.8-3.1-34.4-8-61.9-9.2ZM286.6,165.4c-.2,1.5-1.4,2.5-2.8,2.5s-.2,0-.3,0c-5.7-.6-11.5-1.1-17-1.4-1.6,0-2.8-1.4-2.7-3,0-1.6,1.4-2.8,3-2.7,5.7.3,11.5.8,17.3,1.4,1.6.2,2.7,1.6,2.5,3.1ZM312,160.1c-.2,1.4-1.4,2.3-2.8,2.3s-.3,0-.5,0c-14.2-2.6-28.3-4.3-42-5-1.6,0-2.8-1.4-2.7-3s1.4-2.8,3-2.7c14,.8,28.4,2.5,42.8,5.1,1.5.3,2.6,1.8,2.3,3.3ZM264.3,145c0-1.6,1.4-2.7,3-2.7,10,.5,20.3,1.6,30.5,3.1,1.5.2,2.6,1.7,2.4,3.2-.2,1.4-1.4,2.4-2.8,2.4s-.3,0-.4,0c-10.1-1.5-20.2-2.5-30-3-1.6,0-2.8-1.4-2.7-3ZM316.3,145.7c-.3,0-.7,0-1-.1-12.2-3.1-26-6.1-47.6-7-2.3,0-4.2-2.1-4.1-4.4,0-2.3,2-4.2,4.4-4.1,22.5.9,36.7,4.1,49.3,7.2,2.3.6,3.7,2.9,3.1,5.2-.5,1.9-2.2,3.2-4.1,3.2ZM321.6,175.9c0,.4-.3.7-.7.7s0,0,0,0c-.4,0-.7-.4-.7-.7l1.7-36.4c0-.4.4-.7.7-.7.4,0,.7.4.7.7l-1.7,36.4Z" fill="#dbdbdb"/>
  <path d="M326.4,133.8c-11.7-3.1-35.8-8.5-65.1-9.6-.4,0-.8.1-1,.4-.3.3-.4.6-.4,1l-.9,45.6c0,.8.6,1.4,1.3,1.4,27,1.4,51.5,6.3,63.7,9.2.1,0,.2,0,.3,0,.3,0,.6,0,.9-.3.3-.3.5-.7.6-1.1l1.7-45.3c0-.7-.4-1.3-1.1-1.4ZM261.8,169.9l.8-42.8c27.5,1.2,50.2,6.1,61.9,9.2l-1.6,42.4c-12.6-2.9-35.7-7.4-61.1-8.8Z" fill="#aaa"/>
  <path d="M190.5,183.7c.3,0,.7,0,1-.2,12.1-4.6,31.8-10.2,56.4-10.4,1.6,0,2.8-1.3,2.8-2.9,0-1.6-1.3-2.8-2.8-2.8h0c-25.4.2-45.8,6-58.3,10.7-1.5.6-2.2,2.2-1.6,3.7.4,1.1,1.5,1.8,2.7,1.8Z" fill="#aaa"/>
  <path d="M323.1,191.3c-12.1-2.7-36.2-7.4-61.7-8.8-1.5,0-2.9,1.1-3,2.7,0,1.6,1.1,2.9,2.7,3,25.1,1.4,48.9,6,60.8,8.7.2,0,.4,0,.6,0,1.3,0,2.5-.9,2.8-2.2.3-1.5-.6-3-2.2-3.4Z" fill="#aaa"/>
  <path d="M247.9,182h0c-25.7,0-46,5.6-58.5,10.2-1.5.5-2.2,2.2-1.7,3.6.4,1.1,1.5,1.8,2.7,1.8s.7,0,1-.2c12-4.5,31.6-9.8,56.5-9.8,1.6,0,2.8-1.3,2.8-2.8,0-1.6-1.3-2.8-2.8-2.8Z" fill="#aaa"/>
  <path d="M322.5,205.8c-15-3.2-37.9-7.3-61.3-8.7-1.6-.1-2.9,1.1-3,2.7,0,1.6,1.1,2.9,2.7,3,23.1,1.4,45.6,5.4,60.4,8.6.2,0,.4,0,.6,0,1.3,0,2.5-.9,2.8-2.2.3-1.5-.7-3-2.2-3.4Z" fill="#aaa"/>
  <path d="M247.5,196.6h-.6c-25.6,0-45.4,5.2-57.6,9.6-1.5.5-2.2,2.2-1.7,3.6.4,1.2,1.5,1.9,2.7,1.9s.6,0,1-.2c11.8-4.3,30.9-9.3,55.7-9.3s.4,0,.5,0c1.6,0,2.8-1.3,2.8-2.8,0-1.6-1.3-2.8-2.8-2.8Z" fill="#aaa"/>
  <path d="M317.3,137.3c-12.7-3.2-26.9-6.4-49.3-7.2-2.4-.1-4.3,1.7-4.4,4.1,0,2.3,1.7,4.3,4.1,4.4,21.6.8,35.4,3.9,47.6,7,.3,0,.7.1,1,.1,1.9,0,3.6-1.3,4.1-3.2.6-2.3-.8-4.6-3.1-5.2ZM300.7,137.8c-.2,1.1-1.1,1.8-2.1,1.8s-.2,0-.3,0c-10.3-1.6-20.6-2.6-30.8-3.1-1.2,0-2.1-1.1-2-2.2,0-1.2,1-2.1,2.2-2,10.3.5,20.8,1.6,31.2,3.2,1.2.2,2,1.3,1.8,2.4Z" fill="#aaa"/>
  <path d="M29.4,171.7c-1.5.4-2.5,1.9-2.1,3.4.3,1.3,1.5,2.2,2.8,2.2s.4,0,.7,0c0,0,4.6-1.1,8.5-1.8l.3,5.2c0,.8.4,1.6,1.1,2.1.5.4,1.1.6,1.7.6s.3,0,.5,0c2.2-.4,4.3-.8,6.4-1.1l.8,8.8c.1,1.5,1.4,2.6,2.8,2.6s.2,0,.3,0c1.6-.1,2.7-1.5,2.6-3.1l-.8-9.2c2.7-.4,5.3-.8,7.9-1.2l.6,8.3c.1,1.5,1.4,2.6,2.8,2.6s.1,0,.2,0c1.6-.1,2.7-1.5,2.6-3l-.7-8.6c2.7-.3,5.3-.6,7.9-.9l.6,8.9c0,1.5,1.3,2.6,2.8,2.6s.1,0,.2,0c1.6-.1,2.7-1.5,2.6-3l-.6-9.1c2.7-.2,5.3-.4,7.9-.6l.4,9c0,1.5,1.3,2.7,2.8,2.7s0,0,.1,0c1.6,0,2.8-1.4,2.7-2.9l-.4-9c2.4,0,4.8-.1,7.2-.1l.4,8.7c0,1.5,1.3,2.7,2.8,2.7s0,0,.1,0c1.6,0,2.8-1.4,2.7-3l-.4-8.4c1.4,0,2.9.1,4.3.2.8,0,1.6-.2,2.2-.8.6-.6.9-1.3.8-2.2l-.2-4.8c3.8.4,8,1,8.1,1,.1,0,.3,0,.4,0,1.4,0,2.6-1,2.8-2.4.2-1.5-.9-3-2.4-3.2-.2,0-5-.7-9.2-1.1l-.3-5.9c3.9.4,8.1,1,8.2,1,.1,0,.3,0,.4,0,1.4,0,2.6-1,2.8-2.4.2-1.5-.9-3-2.4-3.2-.2,0-5.1-.7-9.2-1.1l-.3-5.9c3.9.4,8.2,1,8.3,1,.1,0,.3,0,.4,0,1.4,0,2.6-1,2.8-2.4.2-1.6-.9-3-2.4-3.2-.2,0-5.1-.7-9.3-1.1l-.3-5.9c4,.4,8.3,1,8.4,1,.1,0,.3,0,.4,0,1.4,0,2.6-1,2.8-2.4.2-1.6-.9-3-2.4-3.2-.2,0-5.1-.7-9.4-1.1l-.3-5.9c4,.4,8.4,1,8.5,1,.1,0,.3,0,.4,0,1.4,0,2.6-1,2.8-2.4.2-1.6-.9-3-2.4-3.2-.2,0-5.2-.7-9.5-1.1l-.3-5.1c0-1.4-1.1-2.5-2.5-2.7l-1.8-.2c-1.4-.1-2.8-.3-4.2-.4v-9.8c0-1.6-1.3-2.8-2.9-2.8h0c-1.6,0-2.8,1.3-2.8,2.8v9.3c-2-.1-4-.2-6-.2-.5,0-1.1,0-1.6,0l-.2-9.4c0-1.6-1.3-2.8-2.9-2.8-1.6,0-2.8,1.3-2.8,2.9l.2,9.3c-2.7,0-5.3.2-7.9.4l-.5-9.5c0-1.6-1.4-2.8-3-2.7-1.6,0-2.8,1.4-2.7,3l.5,9.6c-2.6.2-5.2.5-7.8.7l-.7-9.6c-.1-1.6-1.5-2.7-3-2.6-1.6.1-2.7,1.5-2.6,3l.7,9.9c-2.6.4-5.3.7-7.9,1.2l-.8-9c-.1-1.6-1.5-2.7-3.1-2.6-1.6.1-2.7,1.5-2.6,3.1l.9,9.4c-2.4.5-4.9,1-7.2,1.5-1.4.3-2.3,1.6-2.2,2.9l.4,6.3c-4.2.8-8.8,1.9-9,1.9-1.5.4-2.5,1.9-2.1,3.4.3,1.3,1.5,2.2,2.8,2.2s.4,0,.7,0c0,0,4.2-1,8-1.7l.4,5.9c-4.2.8-8.9,1.9-9.1,1.9-1.5.4-2.5,1.9-2.1,3.4.3,1.3,1.5,2.2,2.8,2.2s.4,0,.7,0c0,0,4.3-1,8.1-1.7l.4,5.9c-4.2.8-9,1.9-9.2,2-1.5.4-2.5,1.9-2.1,3.4.3,1.3,1.5,2.2,2.8,2.2s.4,0,.7,0c0,0,4.4-1,8.2-1.8l.4,5.9c-4.2.8-9.1,1.9-9.3,2-1.5.4-2.5,1.9-2.1,3.4.3,1.3,1.5,2.2,2.8,2.2s.4,0,.7,0c0,0,4.5-1.1,8.4-1.8l.4,5.9c-4.2.7-9.2,2-9.4,2ZM92.6,113.7c4.8,0,9.7.5,14.6,1l2.8,56.7c-5.6-.2-11.3-.2-17,0-.1,0-.3,0-.4,0-.1,0-.3,0-.4,0,0,0-.2,0-.2,0-4.2.2-8.5.5-13,.9,0,0,0,0-.1,0,0,0-.1,0-.2,0-10.6,1-21.8,2.5-33.6,4.5l-3.7-58c16.3-3.4,33.5-5.2,51.4-5.3Z" fill="#aaa"/>
  <path d="M201.6,73.8c.2,0,.3,0,.5,0,9.6-3.7,19.3-6.5,28.8-8.3.8-.1,1.3-.9,1.1-1.7-.1-.8-.9-1.3-1.7-1.1-9.7,1.8-19.5,4.7-29.3,8.4-.7.3-1.1,1.1-.8,1.8.2.6.8.9,1.3.9Z" fill="#dbdbdb"/>
  <path d="M192.5,77.6c.2,0,.4,0,.6-.1,1.4-.6,3.6-1.5,5.1-2.2.7-.3,1.1-1.1.8-1.9-.3-.7-1.1-1.1-1.9-.8-1.5.6-3.8,1.6-5.2,2.2-.7.3-1,1.2-.7,1.9.2.5.8.8,1.3.8Z" fill="#dbdbdb"/>
  <path d="M201.6,80.7c.2,0,.3,0,.5,0,7.9-2.9,15.9-5.3,23.7-7.1.8-.2,1.2-.9,1.1-1.7s-.9-1.2-1.7-1.1c-8,1.8-16.1,4.2-24.1,7.2-.7.3-1.1,1.1-.8,1.8.2.6.8.9,1.3.9Z" fill="#dbdbdb"/>
  <path d="M192.4,84.5c.2,0,.4,0,.6-.1,1.7-.8,3.4-1.5,5.1-2.2.7-.3,1.1-1.1.8-1.8-.3-.7-1.1-1.1-1.8-.8-1.7.7-3.5,1.5-5.2,2.2-.7.3-1,1.2-.7,1.9.2.5.8.8,1.3.8Z" fill="#dbdbdb"/>
  <path d="M201.8,87.5c.2,0,.3,0,.5,0,13.2-4.9,26.4-8.1,39.3-9.4.8,0,1.3-.8,1.3-1.6,0-.8-.8-1.3-1.6-1.3-13.1,1.3-26.6,4.5-40,9.6-.7.3-1.1,1.1-.8,1.8.2.6.8.9,1.3.9Z" fill="#dbdbdb"/>
  <path d="M192.4,91.3c.2,0,.4,0,.6-.1,1.5-.7,3.4-1.5,5.3-2.2.7-.3,1.1-1.1.8-1.8-.3-.7-1.1-1.1-1.8-.8-2,.8-3.9,1.6-5.4,2.3-.7.3-1,1.2-.7,1.9.2.5.8.8,1.3.8Z" fill="#dbdbdb"/>
  <path d="M201.9,94.4c.2,0,.3,0,.5,0,3.3-1.2,6.7-2.4,9.9-3.4.7-.2,1.2-1,.9-1.8-.2-.8-1-1.2-1.8-.9-3.3,1-6.8,2.2-10.1,3.4-.7.3-1.1,1.1-.8,1.8.2.6.8.9,1.3.9Z" fill="#dbdbdb"/>
  <path d="M192.4,98.2c.2,0,.4,0,.6-.1,1.8-.8,3.7-1.6,5.6-2.3.7-.3,1.1-1.1.8-1.8-.3-.7-1.1-1.1-1.8-.8-1.9.8-3.8,1.6-5.7,2.4-.7.3-1,1.1-.7,1.9.2.5.8.8,1.3.8Z" fill="#dbdbdb"/>
  <path d="M236.3,91.4c-.1-.8-.8-1.3-1.6-1.2-11,1.5-22.1,4.3-33.1,8.2-.7.3-1.1,1.1-.9,1.8.2.6.8.9,1.3.9s.3,0,.5,0c10.8-3.9,21.7-6.6,32.5-8.1.8-.1,1.3-.8,1.2-1.6Z" fill="#dbdbdb"/>
  <path d="M192.3,105.1c.2,0,.4,0,.6-.1,1.9-.8,3.9-1.7,5.9-2.4.7-.3,1.1-1.1.8-1.8-.3-.7-1.1-1.1-1.8-.8-2,.8-4.1,1.6-6,2.5-.7.3-1,1.1-.7,1.9.2.5.8.9,1.3.9Z" fill="#dbdbdb"/>
  <path d="M227.2,99.8c-.1-.8-.9-1.3-1.7-1.1-8,1.6-15.6,3.6-23.2,6.3-.7.3-1.1,1.1-.9,1.8.2.6.8.9,1.3.9s.3,0,.5,0c7.5-2.7,14.9-4.7,22.8-6.2.8-.1,1.3-.9,1.1-1.7Z" fill="#dbdbdb"/>
  <path d="M192.3,111.9c.2,0,.4,0,.6-.1,2.2-.9,4.4-1.8,6.6-2.7.7-.3,1.1-1.1.8-1.8-.3-.7-1.1-1.1-1.8-.8-2.3.9-4.5,1.8-6.7,2.7-.7.3-1.1,1.1-.7,1.9.2.5.8.9,1.3.9Z" fill="#dbdbdb"/>
  <path d="M212.5,108.8c-3.3.9-6.3,1.8-10,3.1-.7.3-1.1,1.1-.9,1.8.2.6.8,1,1.3,1s.3,0,.5,0c3.7-1.3,6.6-2.2,9.8-3.1.8-.2,1.2-1,1-1.7s-1-1.2-1.7-1Z" fill="#dbdbdb"/>
  <path d="M192.2,118.8c.2,0,.4,0,.6-.1,2.2-.9,4.5-1.9,6.8-2.7.7-.3,1.1-1.1.8-1.8-.3-.7-1.1-1.1-1.8-.8-2.3.9-4.6,1.8-6.9,2.8-.7.3-1.1,1.1-.8,1.9.2.5.8.9,1.3.9Z" fill="#dbdbdb"/>
  <path d="M191.7,70.2c.8,0,1.4-.6,1.4-1.4s-.6-1.4-1.4-1.4-1.4.6-1.4,1.4.6,1.4,1.4,1.4Z" fill="#dbdbdb"/>
  <path d="M195.3,68.8c.8,0,1.4-.6,1.4-1.4s-.6-1.4-1.4-1.4-1.4.6-1.4,1.4.6,1.4,1.4,1.4Z" fill="#dbdbdb"/>
  <path d="M197.7,65.9c0,.8.6,1.4,1.4,1.4s1.4-.6,1.4-1.4-.6-1.4-1.4-1.4-1.4.6-1.4,1.4Z" fill="#dbdbdb"/>
  <path d="M298.9,135.4c-10.4-1.6-20.9-2.6-31.2-3.2-1.2,0-2.2.8-2.2,2,0,1.2.8,2.2,2,2.2,10.1.5,20.5,1.6,30.8,3.1.1,0,.2,0,.3,0,1,0,1.9-.8,2.1-1.8.2-1.2-.6-2.2-1.8-2.4Z" fill="#dbdbdb"/>
  <path d="M267,148c9.8.5,19.9,1.5,30,3,.1,0,.3,0,.4,0,1.4,0,2.6-1,2.8-2.4.2-1.5-.8-3-2.4-3.2-10.3-1.5-20.5-2.6-30.5-3.1-1.5,0-2.9,1.1-3,2.7,0,1.6,1.1,2.9,2.7,3Z" fill="#aaa"/>
  <path d="M309.7,156.8c-14.4-2.6-28.8-4.3-42.8-5.1-1.5,0-2.9,1.1-3,2.7s1.1,2.9,2.7,3c13.7.8,27.9,2.4,42,5,.2,0,.3,0,.5,0,1.3,0,2.5-1,2.8-2.3.3-1.5-.7-3-2.3-3.3Z" fill="#aaa"/>
  <path d="M284.1,162.3c-5.8-.6-11.7-1.1-17.3-1.4-1.6,0-2.9,1.1-3,2.7,0,1.6,1.1,2.9,2.7,3,5.6.3,11.3.8,17,1.4.1,0,.2,0,.3,0,1.4,0,2.7-1.1,2.8-2.5.2-1.6-1-3-2.5-3.1Z" fill="#aaa"/>
  <path d="M322.7,138.7c-.4,0-.7.3-.7.7l-1.7,36.4c0,.4.3.7.7.7,0,0,0,0,0,0,.4,0,.7-.3.7-.7l1.7-36.4c0-.4-.3-.7-.7-.7Z" fill="#aaa"/>
</svg>