<svg xmlns="http://www.w3.org/2000/svg" width="1200" height="320" viewBox="0 0 1200 320" role="img" aria-label="FlipperZeroTeacher — Flipper Zero 双语文档、学习路径与可直接喂给 AI 的参考包" font-family="Georgia,'Iowan Old Style','Times New Roman',Times,serif"><rect width="1200" height="320" fill="#F4EFE6"/><text x="34" y="44" font-size="12" font-family="ui-monospace,'Cascadia Mono',Consolas,'SF Mono',monospace" font-weight="400" fill="#41586B" text-anchor="start" letter-spacing="2.0" opacity="0.9">INK LAB / 07 · card · sigil</text><path d="M34.04 56.01 L316.94 53.09 L317.04 53.03 L599.97 56.56 L599.93 56.51 L882.99 55.46 L883.0 55.45 L1165.93 55.95" fill="none" stroke="#41586B" stroke-width="1.2" stroke-linecap="round" stroke-linejoin="round" opacity="1.0"/><text x="34" y="120" font-size="42" font-family="Georgia,'Iowan Old Style','Times New Roman',Times,serif" font-weight="400" fill="#1C2430" text-anchor="start">FlipperZeroTeacher</text><path d="M34.05 132.01 L124.21 128.35 L124.2 128.35 L214.38 135.38 L214.33 135.33 L304.63 132.13 L304.65 132.18 L394.78 132.06" fill="none" stroke="#7A5D18" stroke-width="2.4" stroke-linecap="round" stroke-linejoin="round" opacity="1.0"/><text x="34" y="160" font-size="17" font-family="Georgia,'Iowan Old Style','Times New Roman',Times,serif" font-weight="400" fill="#1C2430" text-anchor="start" font-style="italic" opacity="0.92">Flipper Zero 双语文档、学习路径与可直接喂给 AI 的参考包</text><path d="M34.04 168.0 L142.99 166.02 L143.06 166.01 L251.98 169.5 L252.03 169.54 L361.01 166.46 L361.04 166.46 L470.07 170.03" fill="none" stroke="#7A5D18" stroke-width="2.0" stroke-linecap="round" stroke-linejoin="round" opacity="1.0"/><text x="34" y="212" font-size="11" font-family="ui-monospace,'Cascadia Mono',Consolas,'SF Mono',monospace" font-weight="400" fill="#41586B" text-anchor="start" letter-spacing="2.0" opacity="0.9">LANG</text><text x="200" y="212" font-size="13" font-family="ui-monospace,'Cascadia Mono',Consolas,'SF Mono',monospace" font-weight="400" fill="#1C2430" text-anchor="start" opacity="0.9">HTML</text><text x="34" y="236" font-size="11" font-family="ui-monospace,'Cascadia Mono',Consolas,'SF Mono',monospace" font-weight="400" fill="#41586B" text-anchor="start" letter-spacing="2.0" opacity="0.9">LICENSE</text><text x="200" y="236" font-size="13" font-family="ui-monospace,'Cascadia Mono',Consolas,'SF Mono',monospace" font-weight="400" fill="#1C2430" text-anchor="start" opacity="0.9">MIT</text><text x="34" y="260" font-size="11" font-family="ui-monospace,'Cascadia Mono',Consolas,'SF Mono',monospace" font-weight="400" fill="#41586B" text-anchor="start" letter-spacing="2.0" opacity="0.9">RELEASES</text><text x="200" y="260" font-size="13" font-family="ui-monospace,'Cascadia Mono',Consolas,'SF Mono',monospace" font-weight="400" fill="#1C2430" text-anchor="start" opacity="0.9">0</text><text x="34" y="284" font-size="11" font-family="ui-monospace,'Cascadia Mono',Consolas,'SF Mono',monospace" font-weight="400" fill="#41586B" text-anchor="start" letter-spacing="2.0" opacity="0.9">PUSHED</text><text x="200" y="284" font-size="13" font-family="ui-monospace,'Cascadia Mono',Consolas,'SF Mono',monospace" font-weight="400" fill="#1C2430" text-anchor="start" opacity="0.9">2026-09-30</text><path d="M964.81 147.66 L961.47 150.06 L953.11 182.64 L928.38 205.9 L894.8 212.57 L862.09 201.49 L840.72 174.06 L839.73 139.97 L852.94 108.98 L881.94 92.19 L915.07 90.71 L945.57 105.75 L960.9 136.36" transform="translate(1.6 1.2)" fill="none" stroke="#7A5D18" stroke-width="1.4" stroke-linecap="round" stroke-linejoin="round" opacity="0.3"/><path d="M958.55 147.95 L954.7 150.04 L948.99 180.08 L925.82 201.09 L895.15 207.83 L866.19 195.97 L849.73 170.43 L845.87 140.96 L856.87 112.34 L883.63 97.88 L913.76 95.79 L939.85 111.18 L952.74 138.21" fill="none" stroke="#7A5D18" stroke-width="1.2" stroke-linecap="round" stroke-linejoin="round" opacity="1.0"/><path d="M900.03 149.96 L900.61 156.97 L900.58 156.93 L900.89 164.08 L901.0 164.05 L900.21 171.18 L900.19 171.18 L901.35 178.19" fill="none" stroke="#7A5D18" stroke-width="2.0" stroke-linecap="round" stroke-linejoin="round" opacity="1.0"/><path d="M900.04 150.03 L894.26 150.17 L894.22 150.28 L888.48 149.97 L888.45 149.97 L882.67 150.31 L882.61 150.33 L876.86 150.31" fill="none" stroke="#7A5D18" stroke-width="2.0" stroke-linecap="round" stroke-linejoin="round" opacity="1.0"/><path d="M900.01 150.01 L901.91 142.69 L901.94 142.72 L901.9 135.24 L901.89 135.26 L903.12 127.92 L903.11 127.89 L902.46 120.63" fill="none" stroke="#7A5D18" stroke-width="2.0" stroke-linecap="round" stroke-linejoin="round" opacity="1.0"/><path d="M900.0 149.96 L905.68 150.29 L905.68 150.21 L911.23 148.9 L911.27 148.86 L916.76 148.69 L916.81 148.72 L922.43 147.78" fill="none" stroke="#7A5D18" stroke-width="2.0" stroke-linecap="round" stroke-linejoin="round" opacity="1.0"/><circle cx="900.0" cy="150.0" r="4.16" fill="#7A5D18"/><text x="900" y="234" font-size="11" font-family="ui-monospace,'Cascadia Mono',Consolas,'SF Mono',monospace" font-weight="400" fill="#41586B" text-anchor="middle" letter-spacing="2.0" opacity="0.9">dwgx archive</text><text x="1166" y="252" font-size="30" font-family="Georgia,'Iowan Old Style','Times New Roman',Times,serif" font-weight="400" fill="#7A5D18" text-anchor="end">★3</text><text x="1166" y="274" font-size="11" font-family="ui-monospace,'Cascadia Mono',Consolas,'SF Mono',monospace" font-weight="400" fill="#41586B" text-anchor="end" letter-spacing="2.0" opacity="0.9">HTML · MIT</text><text x="1166" y="292" font-size="11" font-family="ui-monospace,'Cascadia Mono',Consolas,'SF Mono',monospace" font-weight="400" fill="#41586B" text-anchor="end" letter-spacing="2.0" opacity="0.6">2026-09-30</text><path d="M11.97 12.0 L1188.04 11.96 L1187.99 308.0 L12.0 308.02 Z" fill="none" stroke="#1C2430" stroke-width="1.6" stroke-linecap="round" stroke-linejoin="round" opacity="1.0"/><path d="M13.96 11.0 L1190.06 10.94 L1189.99 307.0 L13.99 307.03 Z" transform="translate(1.6 1.2)" fill="none" stroke="#1C2430" stroke-width="1.1" stroke-linecap="round" stroke-linejoin="round" opacity="0.22"/></svg>